<svg xmlns="http://www.w3.org/2000/svg">
  <symbol id="award" viewBox="0 0 448 512"><path d="M245.9-25.9c-13.4-8.2-30.3-8.2-43.7 0-24.4 14.9-39.5 18.9-68.1 18.3-15.7-.4-30.3 8.1-37.9 21.9-13.7 25.1-24.8 36.2-49.9 49.9-13.8 7.5-22.2 22.2-21.9 37.9 .7 28.6-3.4 43.7-18.3 68.1-8.2 13.4-8.2 30.3 0 43.7 14.9 24.4 18.9 39.5 18.3 68.1-.4 15.7 8.1 30.3 21.9 37.9 22.1 12.1 33.3 22.1 45.1 41.5L42.7 458.5c-5.9 11.9-1.1 26.3 10.7 32.2l86 43c11.5 5.7 25.5 1.4 31.7-9.8l52.8-95.1 52.8 95.1c6.2 11.2 20.2 15.6 31.7 9.8l86-43c11.9-5.9 16.7-20.3 10.7-32.2l-48.6-97.2c11.7-19.4 23-29.4 45.1-41.5 13.8-7.5 22.2-22.2 21.9-37.9-.7-28.6 3.4-43.7 18.3-68.1 8.2-13.4 8.2-30.3 0-43.7-14.9-24.4-18.9-39.5-18.3-68.1 .4-15.7-8.1-30.3-21.9-37.9-25.1-13.7-36.2-24.8-49.9-49.9-7.5-13.8-22.2-22.2-37.9-21.9-28.6 .7-43.7-3.4-68.1-18.3zM224 96a96 96 0 1 1 0 192 96 96 0 1 1 0-192z"/></symbol>
  <symbol id="ban" viewBox="0 0 512 512"><path d="M367.2 412.5L99.5 144.8c-22.4 31.4-35.5 69.8-35.5 111.2 0 106 86 192 192 192 41.5 0 79.9-13.1 111.2-35.5zm45.3-45.3c22.4-31.4 35.5-69.8 35.5-111.2 0-106-86-192-192-192-41.5 0-79.9 13.1-111.2 35.5L412.5 367.2zM0 256a256 256 0 1 1 512 0 256 256 0 1 1 -512 0z"/></symbol>
  <symbol id="bars" viewBox="0 0 448 512"><path d="M0 96C0 78.3 14.3 64 32 64l384 0c17.7 0 32 14.3 32 32s-14.3 32-32 32L32 128C14.3 128 0 113.7 0 96zM0 256c0-17.7 14.3-32 32-32l384 0c17.7 0 32 14.3 32 32s-14.3 32-32 32L32 288c-17.7 0-32-14.3-32-32zM448 416c0 17.7-14.3 32-32 32L32 448c-17.7 0-32-14.3-32-32s14.3-32 32-32l384 0c17.7 0 32 14.3 32 32z"/></symbol>
  <symbol id="basket-shopping" viewBox="0 0 576 512"><path d="M288 0c6.6 0 12.9 2.7 17.4 7.5l144 152 .5 .5 78.1 0c17.7 0 32 14.3 32 32 0 14.5-9.6 26.7-22.8 30.7L491.1 429.9c-6.5 29.3-32.5 50.1-62.5 50.1l-281.3 0c-30 0-56-20.8-62.5-50.1l-46-207.2c-13.2-3.9-22.8-16.2-22.8-30.7 0-17.7 14.3-32 32-32l78.1 0 .5-.5 144-152C275.1 2.7 281.4 0 288 0zm0 58.9L192.2 160 383.8 160 288 58.9zM208 264c0-13.3-10.7-24-24-24s-24 10.7-24 24l0 112c0 13.3 10.7 24 24 24s24-10.7 24-24l0-112zm80-24c-13.3 0-24 10.7-24 24l0 112c0 13.3 10.7 24 24 24s24-10.7 24-24l0-112c0-13.3-10.7-24-24-24zm128 24c0-13.3-10.7-24-24-24s-24 10.7-24 24l0 112c0 13.3 10.7 24 24 24s24-10.7 24-24l0-112z"/></symbol>
  <symbol id="bed" viewBox="0 0 576 512"><path d="M32 32c17.7 0 32 14.3 32 32l0 224 224 0 0-128c0-17.7 14.3-32 32-32l160 0c53 0 96 43 96 96l0 224c0 17.7-14.3 32-32 32s-32-14.3-32-32l0-64-448 0 0 64c0 17.7-14.3 32-32 32S0 465.7 0 448L0 64C0 46.3 14.3 32 32 32zm80 160a64 64 0 1 1 128 0 64 64 0 1 1 -128 0z"/></symbol>
  <symbol id="bolt" viewBox="0 0 448 512"><path d="M338.8-9.9c11.9 8.6 16.3 24.2 10.9 37.8L271.3 224 416 224c13.5 0 25.5 8.4 30.1 21.1s.7 26.9-9.6 35.5l-288 240c-11.3 9.4-27.4 9.9-39.3 1.3s-16.3-24.2-10.9-37.8L176.7 288 32 288c-13.5 0-25.5-8.4-30.1-21.1s-.7-26.9 9.6-35.5l288-240c11.3-9.4 27.4-9.9 39.3-1.3z"/></symbol>
  <symbol id="bowl-food" viewBox="0 0 512 512"><path d="M0 176c0-35.3 28.7-64 64-64 .5 0 1.1 0 1.6 0 7.4-36.5 39.7-64 78.4-64 15 0 29 4.1 40.9 11.2 13.3-25.7 40.1-43.2 71.1-43.2s57.8 17.6 71.1 43.2c12-7.1 26-11.2 40.9-11.2 38.7 0 71 27.5 78.4 64 .5 0 1.1 0 1.6 0 35.3 0 64 28.7 64 64 0 11.7-3.1 22.6-8.6 32L8.6 208C3.1 198.6 0 187.7 0 176zM0 283.4C0 268.3 12.3 256 27.4 256l457.1 0c15.1 0 27.4 12.3 27.4 27.4 0 70.5-44.4 130.7-106.7 154.1L403.5 452c-2 16-15.6 28-31.8 28l-231.5 0c-16.1 0-29.8-12-31.8-28l-1.8-14.4C44.4 414.1 0 353.9 0 283.4z"/></symbol>
  <symbol id="calendar-days" viewBox="0 0 448 512"><path d="M128 0c17.7 0 32 14.3 32 32l0 32 128 0 0-32c0-17.7 14.3-32 32-32s32 14.3 32 32l0 32 32 0c35.3 0 64 28.7 64 64l0 288c0 35.3-28.7 64-64 64L64 480c-35.3 0-64-28.7-64-64L0 128C0 92.7 28.7 64 64 64l32 0 0-32c0-17.7 14.3-32 32-32zM64 240l0 32c0 8.8 7.2 16 16 16l32 0c8.8 0 16-7.2 16-16l0-32c0-8.8-7.2-16-16-16l-32 0c-8.8 0-16 7.2-16 16zm128 0l0 32c0 8.8 7.2 16 16 16l32 0c8.8 0 16-7.2 16-16l0-32c0-8.8-7.2-16-16-16l-32 0c-8.8 0-16 7.2-16 16zm144-16c-8.8 0-16 7.2-16 16l0 32c0 8.8 7.2 16 16 16l32 0c8.8 0 16-7.2 16-16l0-32c0-8.8-7.2-16-16-16l-32 0zM64 368l0 32c0 8.8 7.2 16 16 16l32 0c8.8 0 16-7.2 16-16l0-32c0-8.8-7.2-16-16-16l-32 0c-8.8 0-16 7.2-16 16zm144-16c-8.8 0-16 7.2-16 16l0 32c0 8.8 7.2 16 16 16l32 0c8.8 0 16-7.2 16-16l0-32c0-8.8-7.2-16-16-16l-32 0zm112 16l0 32c0 8.8 7.2 16 16 16l32 0c8.8 0 16-7.2 16-16l0-32c0-8.8-7.2-16-16-16l-32 0c-8.8 0-16 7.2-16 16z"/></symbol>
  <symbol id="calendar-plus" viewBox="0 0 448 512"><path d="M128 0c17.7 0 32 14.3 32 32l0 32 128 0 0-32c0-17.7 14.3-32 32-32s32 14.3 32 32l0 32 32 0c35.3 0 64 28.7 64 64l0 288c0 35.3-28.7 64-64 64L64 480c-35.3 0-64-28.7-64-64L0 128C0 92.7 28.7 64 64 64l32 0 0-32c0-17.7 14.3-32 32-32zm96 192c-13.3 0-24 10.7-24 24l0 48-48 0c-13.3 0-24 10.7-24 24s10.7 24 24 24l48 0 0 48c0 13.3 10.7 24 24 24s24-10.7 24-24l0-48 48 0c13.3 0 24-10.7 24-24s-10.7-24-24-24l-48 0 0-48c0-13.3-10.7-24-24-24z"/></symbol>
  <symbol id="camera" viewBox="0 0 512 512"><path d="M149.1 64.8L138.7 96 64 96C28.7 96 0 124.7 0 160L0 416c0 35.3 28.7 64 64 64l384 0c35.3 0 64-28.7 64-64l0-256c0-35.3-28.7-64-64-64l-74.7 0-10.4-31.2C356.4 45.2 338.1 32 317.4 32L194.6 32c-20.7 0-39 13.2-45.5 32.8zM256 192a96 96 0 1 1 0 192 96 96 0 1 1 0-192z"/></symbol>
  <symbol id="car" viewBox="0 0 512 512"><path d="M135.2 117.4l-26.1 74.6 293.8 0-26.1-74.6C372.3 104.6 360.2 96 346.6 96L165.4 96c-13.6 0-25.7 8.6-30.2 21.4zM39.6 196.8L74.8 96.3C88.3 57.8 124.6 32 165.4 32l181.2 0c40.8 0 77.1 25.8 90.6 64.3l35.2 100.5c23.2 9.6 39.6 32.5 39.6 59.2l0 192c0 17.7-14.3 32-32 32l-32 0c-17.7 0-32-14.3-32-32l0-32-320 0 0 32c0 17.7-14.3 32-32 32l-32 0c-17.7 0-32-14.3-32-32L0 256c0-26.7 16.4-49.6 39.6-59.2zM128 304a32 32 0 1 0 -64 0 32 32 0 1 0 64 0zm288 32a32 32 0 1 0 0-64 32 32 0 1 0 0 64z"/></symbol>
  <symbol id="car-side" viewBox="0 0 640 512"><path d="M147 106.7l-29.8 85.3 122.9 0 0-96-77.9 0c-6.8 0-12.9 4.3-15.1 10.7zM48.6 193.9L86.5 85.6C97.8 53.5 128.1 32 162.1 32L360 32c25.2 0 48.9 11.9 64 32l96.2 128.3C587.1 196.5 640 252.1 640 320l0 16c0 35.3-28.7 64-64 64l-16.4 0c-4 44.9-41.7 80-87.6 80s-83.6-35.1-87.6-80l-144.7 0c-4 44.9-41.7 80-87.6 80s-83.6-35.1-87.6-80l-.4 0c-35.3 0-64-28.7-64-64l0-80c0-30.1 20.7-55.3 48.6-62.1zM440 192l-67.2-89.6c-3-4-7.8-6.4-12.8-6.4l-72 0 0 96 152 0zM152 432a40 40 0 1 0 0-80 40 40 0 1 0 0 80zm360-40a40 40 0 1 0 -80 0 40 40 0 1 0 80 0z"/></symbol>
  <symbol id="chevron-down" viewBox="0 0 448 512"><path d="M201.4 406.6c12.5 12.5 32.8 12.5 45.3 0l192-192c12.5-12.5 12.5-32.8 0-45.3s-32.8-12.5-45.3 0L224 338.7 54.6 169.4c-12.5-12.5-32.8-12.5-45.3 0s-12.5 32.8 0 45.3l192 192z"/></symbol>
  <symbol id="children" viewBox="0 0 640 512"><path d="M160.5 0a64 64 0 1 1 0 128 64 64 0 1 1 0-128zm-72 480l0-80-17.8 0c-10.9 0-18.6-10.7-15.2-21.1L86.7 285.5 58 323.3c-10.7 14.1-30.8 16.8-44.8 6.2S-3.7 298.7 7 284.7L65.9 207c22.4-29.6 57.5-47 94.6-47s72.2 17.4 94.6 47L314 284.7c10.7 14.1 7.9 34.2-6.2 44.8s-34.2 7.9-44.8-6.2l-28.7-37.8 31.1 93.4c3.5 10.4-4.3 21.1-15.2 21.1l-17.8 0 0 80c0 17.7-14.3 32-32 32s-32-14.3-32-32l0-80-16 0 0 80c0 17.7-14.3 32-32 32s-32-14.3-32-32zM480.5 0a64 64 0 1 1 0 128 64 64 0 1 1 0-128zm-8 384l0 96c0 17.7-14.3 32-32 32s-32-14.3-32-32l0-179.5-12.9 20.5c-9.4 15-29.2 19.4-44.1 10s-19.4-29.2-10-44.1l51.7-82.1c17.6-27.9 48.3-44.9 81.2-44.9l12.3 0c33 0 63.7 16.9 81.2 44.9L619.6 287c9.4 15 4.9 34.7-10 44.1s-34.7 4.9-44.1-10l-12.9-20.5 0 179.5c0 17.7-14.3 32-32 32s-32-14.3-32-32l0-96-16 0z"/></symbol>
  <symbol id="church" viewBox="0 0 512 512"><path d="M280-8c0-13.3-10.7-24-24-24S232-21.3 232-8l0 24-32 0c-13.3 0-24 10.7-24 24s10.7 24 24 24l32 0 0 48-98.6 65.8C120 186.7 112 201.6 112 217.7l0 38.3-79.8 45.6C12.3 313 0 334.2 0 357.1L0 448c0 35.3 28.7 64 64 64 74.7 0 85.4 0 320 0l64 0c35.3 0 64-28.7 64-64l0-90.9c0-23-12.3-44.2-32.2-55.6L400 256 400 217.7c0-16-8-31-21.4-39.9l-98.6-65.8 0-48 32 0c13.3 0 24-10.7 24-24s-10.7-24-24-24l-32 0 0-24zM256 320c35.3 0 64 28.7 64 64l0 80-128 0 0-80c0-35.3 28.7-64 64-64z"/></symbol>
  <symbol id="circle-info" viewBox="0 0 512 512"><path d="M256 512a256 256 0 1 0 0-512 256 256 0 1 0 0 512zM224 160a32 32 0 1 1 64 0 32 32 0 1 1 -64 0zm-8 64l48 0c13.3 0 24 10.7 24 24l0 88 8 0c13.3 0 24 10.7 24 24s-10.7 24-24 24l-80 0c-13.3 0-24-10.7-24-24s10.7-24 24-24l24 0 0-64-24 0c-13.3 0-24-10.7-24-24s10.7-24 24-24z"/></symbol>
  <symbol id="city" viewBox="0 0 576 512"><path d="M320 0c-35.3 0-64 28.7-64 64l0 32-48 0 0-72c0-13.3-10.7-24-24-24s-24 10.7-24 24l0 72-64 0 0-72C96 10.7 85.3 0 72 0S48 10.7 48 24l0 74c-27.6 7.1-48 32.2-48 62L0 448c0 35.3 28.7 64 64 64l448 0c35.3 0 64-28.7 64-64l0-192c0-35.3-28.7-64-64-64l-64 0 0-128c0-35.3-28.7-64-64-64L320 0zm64 112l0 32c0 8.8-7.2 16-16 16l-32 0c-8.8 0-16-7.2-16-16l0-32c0-8.8 7.2-16 16-16l32 0c8.8 0 16 7.2 16 16zm-16 80c8.8 0 16 7.2 16 16l0 32c0 8.8-7.2 16-16 16l-32 0c-8.8 0-16-7.2-16-16l0-32c0-8.8 7.2-16 16-16l32 0zm16 112l0 32c0 8.8-7.2 16-16 16l-32 0c-8.8 0-16-7.2-16-16l0-32c0-8.8 7.2-16 16-16l32 0c8.8 0 16 7.2 16 16zm112-16c8.8 0 16 7.2 16 16l0 32c0 8.8-7.2 16-16 16l-32 0c-8.8 0-16-7.2-16-16l0-32c0-8.8 7.2-16 16-16l32 0zM256 304l0 32c0 8.8-7.2 16-16 16l-32 0c-8.8 0-16-7.2-16-16l0-32c0-8.8 7.2-16 16-16l32 0c8.8 0 16 7.2 16 16zM240 192c8.8 0 16 7.2 16 16l0 32c0 8.8-7.2 16-16 16l-32 0c-8.8 0-16-7.2-16-16l0-32c0-8.8 7.2-16 16-16l32 0zM128 304l0 32c0 8.8-7.2 16-16 16l-32 0c-8.8 0-16-7.2-16-16l0-32c0-8.8 7.2-16 16-16l32 0c8.8 0 16 7.2 16 16zM112 192c8.8 0 16 7.2 16 16l0 32c0 8.8-7.2 16-16 16l-32 0c-8.8 0-16-7.2-16-16l0-32c0-8.8 7.2-16 16-16l32 0z"/></symbol>
  <symbol id="clipboard-check" viewBox="0 0 384 512"><path d="M256 0c23.7 0 44.4 12.9 55.4 32l8.6 0c35.3 0 64 28.7 64 64l0 352c0 35.3-28.7 64-64 64L64 512c-35.3 0-64-28.7-64-64L0 96C0 60.7 28.7 32 64 32l8.6 0C83.6 12.9 104.3 0 128 0L256 0zm26.9 212.6c-10.7-7.8-25.7-5.4-33.5 5.3l-85.6 117.7-26.5-27.4c-9.2-9.5-24.4-9.8-33.9-.6s-9.8 24.4-.6 33.9l46.4 48c4.9 5.1 11.8 7.8 18.9 7.3s13.6-4.1 17.8-9.8L288.2 246.1c7.8-10.7 5.4-25.7-5.3-33.5zM136 64c-13.3 0-24 10.7-24 24s10.7 24 24 24l112 0c13.3 0 24-10.7 24-24s-10.7-24-24-24L136 64z"/></symbol>
  <symbol id="clock" viewBox="0 0 512 512"><path d="M256 0a256 256 0 1 1 0 512 256 256 0 1 1 0-512zM232 120l0 136c0 8 4 15.5 10.7 20l96 64c11 7.4 25.9 4.4 33.3-6.7s4.4-25.9-6.7-33.3L280 243.2 280 120c0-13.3-10.7-24-24-24s-24 10.7-24 24z"/></symbol>
  <symbol id="cloud-rain" viewBox="0 0 512 512"><path d="M96 320c-53 0-96-43-96-96 0-42.5 27.6-78.6 65.9-91.2-1.3-6.7-1.9-13.7-1.9-20.8 0-61.9 50.1-112 112-112 43.1 0 80.5 24.3 99.2 60 14.7-17.1 36.5-28 60.8-28 44.2 0 80 35.8 80 80 0 5.5-.6 10.8-1.6 16 .5 0 1.1 0 1.6 0 53 0 96 43 96 96s-43 96-96 96L96 320zm1.6 68.2c1.1-2.5 3.6-4.2 6.4-4.2s5.3 1.6 6.4 4.2l30.2 68.2c2.2 5.1 3.4 10.5 3.4 16 0 21.9-18.1 39.6-40 39.6s-40-17.7-40-39.6c0-5.5 1.2-11 3.4-16l30.2-68.2zm152 0c1.1-2.5 3.6-4.2 6.4-4.2s5.3 1.6 6.4 4.2l30.2 68.2c2.2 5.1 3.4 10.5 3.4 16 0 21.9-18.1 39.6-40 39.6s-40-17.7-40-39.6c0-5.5 1.2-11 3.4-16l30.2-68.2zm121.8 68.2l30.2-68.2c1.1-2.5 3.6-4.2 6.4-4.2s5.3 1.6 6.4 4.2l30.2 68.2c2.2 5.1 3.4 10.5 3.4 16 0 21.9-18.1 39.6-40 39.6s-40-17.7-40-39.6c0-5.5 1.2-11 3.4-16z"/></symbol>
  <symbol id="cloud-sun" viewBox="0 0 640 512"><path d="M208.3 192c43.1 0 80.5 24.4 99.2 60.1 14.7-17.2 36.4-28.1 60.8-28.1 44.2 0 80 35.8 80 80 0 5.5-.6 10.9-1.6 16 .5 0 1.1 0 1.6 0 53 0 96 43 96 96s-43 96-96 96l-320 0c-53 0-96-43-96-96 0-42.5 27.7-78.5 66-91.2-1.3-6.8-2-13.7-2-20.8 0-61.9 50.1-112 112-112zm192-223.8c5.3 0 10.3 2.7 13.3 7.1l47.3 70.4 83.3-16.3c5.2-1 10.6 .7 14.3 4.4 3.8 3.8 5.4 9.2 4.4 14.4l-16.3 83.3 70.4 47.3c4.4 3 7.1 8 7.1 13.3 0 5.3-2.6 10.3-7 13.2l-70.4 47.3 14.5 74.2c-17.2-21.7-40.4-38.4-67.2-47.3-2.5-12.7-6.9-24.6-12.8-35.7 9.6-14.9 15.2-32.7 15.2-51.7 0-53-43-96-96-96-47.9 0-87.6 35.1-94.8 80.9-20.9-16-45.9-27-73.1-31.1l21.5-14.5-16.3-83.2-.3-2c-.3-4.6 1.3-9.1 4.6-12.4 3.8-3.8 9.2-5.4 14.4-4.4l83.3 16.3 47.3-70.4 1.2-1.6c3-3.5 7.4-5.5 12.1-5.5zm0 175.8c26.5 0 48 21.5 48 48 0 3.8-.5 7.6-1.4 11.1-21.7-16.9-48.9-27.1-78.6-27.1-4.6 0-9.1 .2-13.5 .7 6.4-19 24.3-32.7 45.5-32.7z"/></symbol>
  <symbol id="comments" viewBox="0 0 576 512"><path d="M384 144c0 97.2-86 176-192 176-26.7 0-52.1-5-75.2-14L35.2 349.2c-9.3 4.9-20.7 3.2-28.2-4.2s-9.2-18.9-4.2-28.2l35.6-67.2C14.3 220.2 0 183.6 0 144 0 46.8 86-32 192-32S384 46.8 384 144zm0 368c-94.1 0-172.4-62.1-188.8-144 120-1.5 224.3-86.9 235.8-202.7 83.3 19.2 145 88.3 145 170.7 0 39.6-14.3 76.2-38.4 105.6l35.6 67.2c4.9 9.3 3.2 20.7-4.2 28.2s-18.9 9.2-28.2 4.2L459.2 498c-23.1 9-48.5 14-75.2 14z"/></symbol>
  <symbol id="compass" viewBox="0 0 512 512"><path d="M256 512a256 256 0 1 0 0-512 256 256 0 1 0 0 512zm50.7-186.9L162.4 380.6c-19.4 7.5-38.5-11.6-31-31l55.5-144.3c3.3-8.5 9.9-15.1 18.4-18.4l144.3-55.5c19.4-7.5 38.5 11.6 31 31L325.1 306.7c-3.2 8.5-9.9 15.1-18.4 18.4zM288 256a32 32 0 1 0 -64 0 32 32 0 1 0 64 0z"/></symbol>
  <symbol id="eye" viewBox="0 0 576 512"><path d="M288 32c-80.8 0-145.5 36.8-192.6 80.6-46.8 43.5-78.1 95.4-93 131.1-3.3 7.9-3.3 16.7 0 24.6 14.9 35.7 46.2 87.7 93 131.1 47.1 43.7 111.8 80.6 192.6 80.6s145.5-36.8 192.6-80.6c46.8-43.5 78.1-95.4 93-131.1 3.3-7.9 3.3-16.7 0-24.6-14.9-35.7-46.2-87.7-93-131.1-47.1-43.7-111.8-80.6-192.6-80.6zM144 256a144 144 0 1 1 288 0 144 144 0 1 1 -288 0zm144-64c0 35.3-28.7 64-64 64-11.5 0-22.3-3-31.7-8.4-1 10.9-.1 22.1 2.9 33.2 13.7 51.2 66.4 81.6 117.6 67.9s81.6-66.4 67.9-117.6c-12.2-45.7-55.5-74.8-101.1-70.8 5.3 9.3 8.4 20.1 8.4 31.7z"/></symbol>
  <symbol id="fish" viewBox="0 0 576 512"><path d="M180.5 141.5C219.7 108.5 272.6 80 336 80s116.3 28.5 155.5 61.5c39.1 33 66.9 72.4 81 99.8 4.7 9.2 4.7 20.1 0 29.3-14.1 27.4-41.9 66.8-81 99.8-39.2 33.1-92 61.5-155.5 61.5s-116.3-28.5-155.5-61.5c-16.2-13.7-30.5-28.5-42.7-43.1L48.1 379.6c-12.5 7.3-28.4 5.3-38.7-4.9s-12.4-26-5.3-38.6L50 256 4.2 175.9c-7.2-12.6-5-28.4 5.3-38.6s26.1-12.2 38.7-4.9l89.7 52.3c12.2-14.6 26.5-29.4 42.7-43.1zM448 256a32 32 0 1 0 -64 0 32 32 0 1 0 64 0z"/></symbol>
  <symbol id="gopuram" viewBox="0 0 512 512"><path d="M120 0c13.3 0 24 10.7 24 24l0 8 40 0 0-8c0-13.3 10.7-24 24-24s24 10.7 24 24l0 8 48 0 0-8c0-13.3 10.7-24 24-24s24 10.7 24 24l0 8 40 0 0-8c0-13.3 10.7-24 24-24s24 10.7 24 24l0 136c26.5 0 48 21.5 48 48l0 80c26.5 0 48 21.5 48 48l0 128c0 26.5-21.5 48-48 48l-48 0 0-224-32 0 0-128-48 0 0 128 32 0 0 224-224 0 0-224 32 0 0-128-48 0 0 128-32 0 0 224-48 0c-26.5 0-48-21.5-48-48L0 336c0-26.5 21.5-48 48-48l0-80c0-26.5 21.5-48 48-48L96 24c0-13.3 10.7-24 24-24zM256 208c-17.7 0-32 14.3-32 32l0 48 64 0 0-48c0-17.7-14.3-32-32-32zM208 400l0 64 96 0 0-64c0-26.5-21.5-48-48-48s-48 21.5-48 48zM256 96c-17.7 0-32 14.3-32 32l0 32 64 0 0-32c0-17.7-14.3-32-32-32z"/></symbol>
  <symbol id="hotel" viewBox="0 0 512 512"><path d="M16 24C16 10.7 26.7 0 40 0L472 0c13.3 0 24 10.7 24 24s-10.7 24-24 24l-8 0 0 416 8 0c13.3 0 24 10.7 24 24s-10.7 24-24 24L40 512c-13.3 0-24-10.7-24-24s10.7-24 24-24l8 0 0-416-8 0C26.7 48 16 37.3 16 24zm208 88l0 32c0 8.8 7.2 16 16 16l32 0c8.8 0 16-7.2 16-16l0-32c0-8.8-7.2-16-16-16l-32 0c-8.8 0-16 7.2-16 16zM128 96c-8.8 0-16 7.2-16 16l0 32c0 8.8 7.2 16 16 16l32 0c8.8 0 16-7.2 16-16l0-32c0-8.8-7.2-16-16-16l-32 0zm96 112l0 32c0 8.8 7.2 16 16 16l32 0c8.8 0 16-7.2 16-16l0-32c0-8.8-7.2-16-16-16l-32 0c-8.8 0-16 7.2-16 16zM352 96c-8.8 0-16 7.2-16 16l0 32c0 8.8 7.2 16 16 16l32 0c8.8 0 16-7.2 16-16l0-32c0-8.8-7.2-16-16-16l-32 0zM112 208l0 32c0 8.8 7.2 16 16 16l32 0c8.8 0 16-7.2 16-16l0-32c0-8.8-7.2-16-16-16l-32 0c-8.8 0-16 7.2-16 16zm240-16c-8.8 0-16 7.2-16 16l0 32c0 8.8 7.2 16 16 16l32 0c8.8 0 16-7.2 16-16l0-32c0-8.8-7.2-16-16-16l-32 0zM288 384l43.8 0c9.9 0 17.5-9 14-18.2-13.8-36.1-48.8-61.8-89.7-61.8s-75.9 25.7-89.7 61.8c-3.5 9.2 4.1 18.2 14 18.2l43.8 0 0 80 64 0 0-80z"/></symbol>
  <symbol id="hourglass-half" viewBox="0 0 384 512"><path d="M32 0C14.3 0 0 14.3 0 32S14.3 64 32 64l0 11c0 42.4 16.9 83.1 46.9 113.1l67.9 67.9-67.9 67.9C48.9 353.9 32 394.6 32 437l0 11c-17.7 0-32 14.3-32 32s14.3 32 32 32l320 0c17.7 0 32-14.3 32-32s-14.3-32-32-32l0-11c0-42.4-16.9-83.1-46.9-113.1l-67.9-67.9 67.9-67.9c30-30 46.9-70.7 46.9-113.1l0-11c17.7 0 32-14.3 32-32S369.7 0 352 0L32 0zM96 75l0-11 192 0 0 11c0 19-5.6 37.4-16 53L112 128c-10.3-15.6-16-34-16-53zm16 309c3.5-5.3 7.6-10.3 12.1-14.9l67.9-67.9 67.9 67.9c4.6 4.6 8.6 9.6 12.2 14.9L112 384z"/></symbol>
  <symbol id="house-chimney" viewBox="0 0 512 512"><path d="M234.2 8.6c12.3-11.4 31.3-11.4 43.5 0L368 92.3 368 80c0-17.7 14.3-32 32-32l32 0c17.7 0 32 14.3 32 32l0 101.5 37.8 35.1c9.6 9 12.8 22.9 8 35.1S493.2 272 480 272l-16 0 0 176c0 35.3-28.7 64-64 64l-288 0c-35.3 0-64-28.7-64-64l0-176-16 0c-13.2 0-25-8.1-29.8-20.3s-1.6-26.2 8-35.1l224-208zM240 320c-26.5 0-48 21.5-48 48l0 96 128 0 0-96c0-26.5-21.5-48-48-48l-32 0z"/></symbol>
  <symbol id="landmark" viewBox="0 0 512 512"><path d="M238.7 5.1c10.5-6.8 24.1-6.8 34.6 0l224 144c11.9 7.7 17.4 22.3 13.4 35.9s-16.5 23-30.7 23l-32 0 0 208 51.2 38.4c8.1 6 12.8 15.5 12.8 25.6 0 17.7-14.3 32-32 32L32 512c-17.7 0-32-14.3-32-32 0-10.1 4.7-19.6 12.8-25.6l51.2-38.4 0 0 0-208-32 0c-14.2 0-26.7-9.4-30.7-23s1.5-28.3 13.4-35.9l224-144zM336 208l0 208 64 0 0-208-64 0zM224 416l64 0 0-208-64 0 0 208zM112 208l0 208 64 0 0-208-64 0z"/></symbol>
  <symbol id="leaf" viewBox="0 0 512 512"><path d="M471.3 6.7C477.7 .6 487-1.6 495.6 1.2 505.4 4.5 512 13.7 512 24l0 186.9c0 131.2-108.1 237.1-238.8 237.1-77 0-143.4-49.5-167.5-118.7-35.4 30.8-57.7 76.1-57.7 126.7 0 13.3-10.7 24-24 24S0 469.3 0 456C0 381.1 38.2 315.1 96.1 276.3 131.4 252.7 173.5 240 216 240l80 0c13.3 0 24-10.7 24-24s-10.7-24-24-24l-80 0c-39.7 0-77.3 8.8-111 24.5 23.3-70 89.2-120.5 167-120.5 66.4 0 115.8-22.1 148.7-44 19.2-12.8 35.5-28.1 50.7-45.3z"/></symbol>
  <symbol id="list-check" viewBox="0 0 512 512"><path d="M133.8 36.3c10.9 7.6 13.5 22.6 5.9 33.4l-56 80c-4.1 5.8-10.5 9.5-17.6 10.1S52 158 47 153L7 113C-2.3 103.6-2.3 88.4 7 79S31.6 69.7 41 79l19.8 19.8 39.6-56.6c7.6-10.9 22.6-13.5 33.4-5.9zm0 160c10.9 7.6 13.5 22.6 5.9 33.4l-56 80c-4.1 5.8-10.5 9.5-17.6 10.1S52 318 47 313L7 273c-9.4-9.4-9.4-24.6 0-33.9s24.6-9.4 33.9 0l19.8 19.8 39.6-56.6c7.6-10.9 22.6-13.5 33.4-5.9zM224 96c0-17.7 14.3-32 32-32l224 0c17.7 0 32 14.3 32 32s-14.3 32-32 32l-224 0c-17.7 0-32-14.3-32-32zm0 160c0-17.7 14.3-32 32-32l224 0c17.7 0 32 14.3 32 32s-14.3 32-32 32l-224 0c-17.7 0-32-14.3-32-32zM160 416c0-17.7 14.3-32 32-32l288 0c17.7 0 32 14.3 32 32s-14.3 32-32 32l-288 0c-17.7 0-32-14.3-32-32zM64 376a40 40 0 1 1 0 80 40 40 0 1 1 0-80z"/></symbol>
  <symbol id="location-dot" viewBox="0 0 384 512"><path d="M0 188.6C0 84.4 86 0 192 0S384 84.4 384 188.6c0 119.3-120.2 262.3-170.4 316.8-11.8 12.8-31.5 12.8-43.3 0-50.2-54.5-170.4-197.5-170.4-316.8zM192 256a64 64 0 1 0 0-128 64 64 0 1 0 0 128z"/></symbol>
  <symbol id="map" viewBox="0 0 512 512"><path d="M512 48c0-11.1-5.7-21.4-15.2-27.2s-21.2-6.4-31.1-1.4L349.5 77.5 170.1 17.6c-8.1-2.7-16.8-2.1-24.4 1.7l-128 64C6.8 88.8 0 99.9 0 112L0 464c0 11.1 5.7 21.4 15.2 27.2s21.2 6.4 31.1 1.4l116.1-58.1 179.4 59.8c8.1 2.7 16.8 2.1 24.4-1.7l128-64c10.8-5.4 17.7-16.5 17.7-28.6l0-352zM192 376.9l0-284.5 128 42.7 0 284.5-128-42.7z"/></symbol>
  <symbol id="map-location-dot" viewBox="0 0 640 512"><path d="M576 48c0-11.1-5.7-21.4-15.2-27.2s-21.2-6.4-31.1-1.4L413.5 77.5 234.1 17.6c-8.1-2.7-16.8-2.1-24.4 1.7l-128 64C70.8 88.8 64 99.9 64 112l0 352c0 11.1 5.7 21.4 15.2 27.2s21.2 6.4 31.1 1.4l116.1-58.1 173.3 57.8c-4.3-6.4-8.5-13.1-12.6-19.9-11-18.3-21.9-39.3-30-61.8l-101.2-33.7 0-284.5 128 42.7 0 99.3c31-35.8 77-58.4 128-58.4 22.6 0 44.2 4.4 64 12.5L576 48zM512 224c-66.3 0-120 52.8-120 117.9 0 68.9 64.1 150.4 98.6 189.3 11.6 13 31.3 13 42.9 0 34.5-38.9 98.6-120.4 98.6-189.3 0-65.1-53.7-117.9-120-117.9zM472 344a40 40 0 1 1 80 0 40 40 0 1 1 -80 0z"/></symbol>
  <symbol id="martini-glass" viewBox="0 0 512 512"><path d="M2.4 51.8C7.4 39.8 19.1 32 32 32l448 0c12.9 0 24.6 7.8 29.6 19.8s2.2 25.7-6.9 34.9L288 301.3 288 448 352 448c17.7 0 32 14.3 32 32s-14.3 32-32 32l-192 0c-17.7 0-32-14.3-32-32s14.3-32 32-32l64 0 0-146.7-214.6-214.6C.2 77.5-2.5 63.7 2.4 51.8zM354.7 144l48-48-293.5 0 48 48 197.5 0z"/></symbol>
  <symbol id="money-bill-wave" viewBox="0 0 512 512"><path d="M0 419.6L0 109.5c0-23.2 24.1-38.6 46.3-32 87.7 26.2 149.7 5.5 212.1-15.3 64.5-21.5 129.4-43.1 223.3-13.1 18.5 5.9 30.3 23.8 30.3 43.3l0 310.1c0 23.2-24.1 38.6-46.2 32-87.7-26.2-149.8-5.5-212.1 15.3-64.5 21.5-129.4 43.1-223.3 13.1-18.5-5.9-30.3-23.8-30.3-43.3zM336 256c0-53-35.8-96-80-96s-80 43-80 96 35.8 96 80 96 80-43 80-96zM120 413.6c4.4 0 7.9-3.8 7.2-8.1-4.6-27.8-27-49.5-55.2-53-4.4-.5-8 3.1-8 7.5l0 39.9c0 3.6 2.4 6.8 6 7.7 17.9 4.2 34.3 6.1 50 6.1zm318.5-51.1c5 .8 9.5-3 9.5-8l0-42.6c0-4.4-3.6-8.1-8-7.5-25.2 3.1-45.9 20.9-53.2 44.6-1.4 4.7 2.3 9.1 7.2 9.2 14.2 .4 29 1.7 44.4 4.3zM448 152l0-39.9c0-3.6-2.5-6.8-6-7.7-17.9-4.2-34.3-6.1-50-6.1-4.4 0-7.9 3.8-7.2 8.1 4.6 27.8 27 49.5 55.2 53 4.4 .5 8-3.1 8-7.5zM125.2 162.9c1.4-4.7-2.3-9.1-7.2-9.2-14.2-.4-29-1.7-44.4-4.3-5-.8-9.5 3-9.5 8L64 200c0 4.4 3.6 8.1 8 7.5 25.2-3.1 45.9-20.9 53.2-44.6z"/></symbol>
  <symbol id="moon" viewBox="0 0 512 512"><path d="M256 0C114.6 0 0 114.6 0 256S114.6 512 256 512c68.8 0 131.3-27.2 177.3-71.4 7.3-7 9.4-17.9 5.3-27.1s-13.7-14.9-23.8-14.1c-4.9 .4-9.8 .6-14.8 .6-101.6 0-184-82.4-184-184 0-72.1 41.5-134.6 102.1-164.8 9.1-4.5 14.3-14.3 13.1-24.4S322.6 8.5 312.7 6.3C294.4 2.2 275.4 0 256 0z"/></symbol>
  <symbol id="mountain" viewBox="0 0 512 512"><path d="M256.5 0c14.7 0 28.2 8.1 35.2 21l216 400c6.7 12.4 6.4 27.4-.8 39.5-7.2 12.1-20.3 19.5-34.3 19.5l-432 0c-14.1 0-27.1-7.4-34.3-19.5s-7.5-27.1-.8-39.5l216-400 2.9-4.6C231.7 6.2 243.6 0 256.5 0zM170.4 249.9l26.8 26.8c6.2 6.2 16.4 6.2 22.6 0l43.3-43.3c6-6 14.1-9.4 22.6-9.4l42.8 0-72.1-133.5-86.1 159.4z"/></symbol>
  <symbol id="mountain-sun" viewBox="0 0 576 512"><path d="M256.5 0c14.7 0 28.2 8.1 35.2 21l216 400c6.7 12.4 6.4 27.4-.8 39.5-7.2 12.1-20.3 19.5-34.3 19.5l-432 0c-14.1 0-27.1-7.4-34.3-19.5s-7.5-27.1-.8-39.5l216-400 2.9-4.6C231.7 6.2 243.6 0 256.5 0zM170.4 249.9l26.8 26.8c6.2 6.2 16.4 6.2 22.6 0l43.3-43.3c6-6 14.1-9.4 22.6-9.4l42.8 0-72.1-133.5-86.1 159.4zM496.5 160a80 80 0 1 1 0-160 80 80 0 1 1 0 160z"/></symbol>
  <symbol id="mug-hot" viewBox="0 0 576 512"><path d="M152-16c-13.3 0-24 10.7-24 24 0 38.9 23.4 59.4 39.1 73.1l1.1 1c16.3 14.3 23.8 21.8 23.8 37.9 0 13.3 10.7 24 24 24s24-10.7 24-24c0-38.9-23.4-59.4-39.1-73.1l-1.1-1C183.5 31.7 176 24.1 176 8 176-5.3 165.3-16 152-16zM96 192c-17.7 0-32 14.3-32 32l0 192c0 53 43 96 96 96l192 0c41.8 0 77.4-26.7 90.5-64l5.5 0c70.7 0 128-57.3 128-128S518.7 192 448 192L96 192zM448 384l0-128c35.3 0 64 28.7 64 64s-28.7 64-64 64zM288 8c0-13.3-10.7-24-24-24S240-5.3 240 8c0 38.9 23.4 59.4 39.1 73.1l1.1 1c16.3 14.3 23.8 21.8 23.8 37.9 0 13.3 10.7 24 24 24s24-10.7 24-24c0-38.9-23.4-59.4-39.1-73.1l-1.1-1C295.5 31.7 288 24.1 288 8z"/></symbol>
  <symbol id="music" viewBox="0 0 512 512"><path d="M468 7c7.6 6.1 12 15.3 12 25l0 304c0 44.2-43 80-96 80s-96-35.8-96-80 43-80 96-80c11.2 0 22 1.6 32 4.6l0-116.7-224 49.8 0 206.3c0 44.2-43 80-96 80s-96-35.8-96-80 43-80 96-80c11.2 0 22 1.6 32 4.6L128 96c0-15 10.4-28 25.1-31.2l288-64c9.5-2.1 19.4 .2 27 6.3z"/></symbol>
  <symbol id="palette" viewBox="0 0 512 512"><path d="M512 256c0 .9 0 1.8 0 2.7-.4 36.5-33.6 61.3-70.1 61.3L344 320c-26.5 0-48 21.5-48 48 0 3.4 .4 6.7 1 9.9 2.1 10.2 6.5 20 10.8 29.9 6.1 13.8 12.1 27.5 12.1 42 0 31.8-21.6 60.7-53.4 62-3.5 .1-7 .2-10.6 .2-141.4 0-256-114.6-256-256S114.6 0 256 0 512 114.6 512 256zM128 288a32 32 0 1 0 -64 0 32 32 0 1 0 64 0zm0-96a32 32 0 1 0 0-64 32 32 0 1 0 0 64zM288 96a32 32 0 1 0 -64 0 32 32 0 1 0 64 0zm96 96a32 32 0 1 0 0-64 32 32 0 1 0 0 64z"/></symbol>
  <symbol id="pepper-hot" viewBox="0 0 576 512"><path d="M545 65c9.4-9.4 9.4-24.6 0-33.9s-24.6-9.4-33.9 0L478.9 63.2C452.3 43.6 419.5 32 384 32 348.9 32 316.5 43.3 290.1 62.4 274.1 74.1 284.2 96 304 96l24 0c13.3 0 24 10.7 24 24l0 80c0 13.3 10.7 24 24 24l80 0c13.3 0 24 10.7 24 24l0 24c0 19.8 21.9 29.9 33.6 13.9 19.1-26.4 30.4-58.8 30.4-93.9 0-35.5-11.6-68.3-31.2-94.9L545 65zM270 135.5l-159.6 228C101.3 376.4 86.7 384 71 384l-7 0c-26.5 0-48 21.5-48 48s21.5 48 48 48l27.1 0c65.7 0 129.7-20.2 183.5-57.8L440.5 306.1C435 295.9 432 284.2 432 272l-56 0c-39.8 0-72-32.2-72-72l0-56c-12.2 0-23.9-3-34-8.5z"/></symbol>
  <symbol id="person-chalkboard" viewBox="0 0 640 512"><path d="M192 80a56 56 0 1 0 0-112 56 56 0 1 0 0 112zM176 512l0-160c0-8.8 7.2-16 16-16s16 7.2 16 16l0 160c0 17.7 14.3 32 32 32s32-14.3 32-32l0-336 128 0c17.7 0 32-14.3 32-32s-14.3-32-32-32l-16 0 0-48 192 0 0 192-192 0 0-32-64 0 0 48c0 26.5 21.5 48 48 48l224 0c26.5 0 48-21.5 48-48l0-224c0-26.5-21.5-48-48-48L368 0c-26.5 0-48 21.5-48 48l0 64-122.7 0c-45.6 0-88.5 21.6-115.6 58.2L14.3 260.9c-10.5 14.2-7.6 34.2 6.6 44.8s34.2 7.6 44.8-6.6L112 236.7 112 512c0 17.7 14.3 32 32 32s32-14.3 32-32z"/></symbol>
  <symbol id="person-hiking" viewBox="0 0 448 512"><path d="M192-32a56 56 0 1 1 0 112 56 56 0 1 1 0-112zM128 173.6c0-34 27.6-61.6 61.6-61.6 20.3 0 39.7 8.1 54 22.4l48.2 48.2c6 6 14.1 9.4 22.6 9.4l37.5 0c5.8 0 11.3 1.6 16 4.3l0-76.3c0-13.3 10.7-24 24-24s24 10.7 24 24l0 400c0 13.3-10.7 24-24 24s-24-10.7-24-24l0-268.3c-4.7 2.7-10.2 4.3-16 4.3l-37.5 0c-25.5 0-49.9-10.1-67.9-28.1l-6.6-6.6 0 109.2 34.5 29.6c17.7 15.2 29.3 36.2 32.6 59.3l12.6 88.1c2.5 17.5-9.7 33.7-27.2 36.2s-33.7-9.7-36.2-27.2l-12.6-88.1c-1.1-7.7-5-14.7-10.9-19.8l-71.4-61.2c-21.3-18.2-33.5-44.9-33.5-72.9l0-101zm-4.8 203.7c2.3 2.3 4.7 4.4 7.1 6.5l44.9 38.5c-3.6 8.4-8.5 16.3-14.4 23.4L88.6 532.5c-11.3 13.6-31.5 15.4-45.1 4.1s-15.4-31.5-4.1-45.1l72.3-86.7c2.6-3.1 4.5-6.6 5.8-10.4l5.7-17.1zM0 160c0-35.3 28.7-64 64-64 17.7 0 32 14.3 32 32l0 128c0 17.7-14.3 32-32 32l-32 0c-17.7 0-32-14.3-32-32l0-96z"/></symbol>
  <symbol id="person-swimming" viewBox="0 0 640 512"><path d="M552 152a56 56 0 1 0 -112 0 56 56 0 1 0 112 0zM293.4 198.2l-88.6 73.9c1.1 0 2.2-.1 3.3-.1 33.1-.2 66.3 10.2 94.4 31.4 22.1 16.6 29.1 16.6 51.2 0 27.5-20.7 59.9-31.2 92.4-31.4 4.8 0 9.7 .2 14.5 .6-8.3-30-24.3-57.7-46.8-80.2-18.4-18.4-40.6-32.7-65-41.8l-68.6-25.7c-27.4-10.3-58-7.5-83.1 7.6l-53.5 32.1c-15.2 9.1-20.1 28.7-11 43.9s28.7 20.1 43.9 11L230 187.3c8.4-5 18.6-5.9 27.7-2.5l35.7 13.4zm110 181.9c21.3-16.1 49.9-16.1 71.2 0 19 14.4 41.9 28.2 67.2 33.3 26.5 5.4 54.3 .8 80.7-19.1 10.6-8 12.7-23 4.7-33.6s-23-12.7-33.6-4.7c-14.9 11.2-28.6 13.1-42.3 10.3-14.9-3-30.9-11.9-47.8-24.6-38.4-29-90.5-29-129 0-24 18.1-40.7 26.3-54.5 26.3s-30.5-8.2-54.5-26.3c-38.4-29-90.5-29-129 0-21.6 16.3-41.3 25.8-58.9 25.7-9.6-.1-19.9-3-31.2-11.5-10.6-8-25.6-5.9-33.6 4.7S7 386.3 17.6 394.3c19.1 14.4 39.4 21 59.8 21.1 33.9 .2 64.3-17.4 88.1-35.3 21.3-16.1 49.9-16.1 71.2 0 24.2 18.3 52.3 35.9 83.4 35.9s59.1-17.7 83.4-35.9z"/></symbol>
  <symbol id="person-walking" viewBox="0 0 384 512"><path d="M192 80a56 56 0 1 0 0-112 56 56 0 1 0 0 112zM105.4 227.9l22.6-22.6 0 69.3c0 28 12.2 54.7 33.5 72.9l71.4 61.2c5.9 5.1 9.8 12.1 10.9 19.8l12.6 88.1c2.5 17.5 18.7 29.7 36.2 27.2s29.7-18.7 27.2-36.2l-12.6-88.1c-3.3-23.1-14.9-44.1-32.6-59.3l-34.5-29.6 0-115.2 3.8 4.7c18.2 22.8 45.8 36 75 36l33.2 0c17.7 0 32-14.3 32-32s-14.3-32-32-32l-33.2 0c-9.7 0-18.9-4.4-25-12l-17.9-22.4c-23-28.8-57.9-45.6-94.8-45.6-32.2 0-63.1 12.8-85.8 35.6L60.1 182.6C42.1 200.6 32 225 32 250.5L32 288c0 17.7 14.3 32 32 32s32-14.3 32-32l0-37.5c0-8.5 3.4-16.6 9.4-22.6zm12.4 179.4c-1.5 5.2-4.3 10-8.1 13.8L41.4 489.4c-12.5 12.5-12.5 32.8 0 45.3s32.8 12.5 45.3 0l68.3-68.3c11.5-11.5 19.9-25.8 24.4-41.5l2.2-7.6-46-39.4c-2.5-2.2-5-4.4-7.4-6.8l-10.4 36.2z"/></symbol>
  <symbol id="plane" viewBox="0 0 576 512"><path d="M520 200c30.9 0 56 25.1 56 56s-25.1 56-56 56l-127.3 0-159.2 173.6c-6.1 6.6-14.6 10.4-23.6 10.4l-43.7 0c-10.9 0-18.6-10.7-15.2-21.1l54.3-162.9-99.7 0-52.8 66c-3 3.8-7.6 6-12.5 6l-19.8 0c-10.4 0-18-9.8-15.5-19.9L32 256 5 147.9C2.4 137.8 10.1 128 20.5 128l19.8 0c4.9 0 9.5 2.2 12.5 6l52.8 66 99.7 0-54.3-162.9C147.6 26.7 155.3 16 166.2 16l43.7 0c9 0 17.5 3.8 23.6 10.4L392.7 200 520 200z"/></symbol>
  <symbol id="plane-arrival" viewBox="0 0 576 512"><path d="M386.6 193.1L265.9 3.7c-4.8-7.6-12.6-12.8-21.4-14.3l-43.1-7.6c-10.8-1.9-20.2 7.3-18.6 18.1l24 161.6-105-18.5-33.8-61.8C64.5 74.7 58.2 70.2 51.1 69L34 66c-9.8-1.7-18.8 5.9-18.8 15.8l.6 106.3c.2 30.9 22.4 57.3 52.9 62.7l13.5 2.4 0 0 417.6 73.6c30.5 5.4 59.5-15 64.9-45.4s-15-59.5-45.4-64.9L386.6 193.1zM224 384a32 32 0 1 0 0-64 32 32 0 1 0 0 64zm131.2-15.3a32 32 0 1 0 -64 0 32 32 0 1 0 64 0zM32 448c-17.7 0-32 14.3-32 32s14.3 32 32 32l512 0c17.7 0 32-14.3 32-32s-14.3-32-32-32L32 448z"/></symbol>
  <symbol id="plane-departure" viewBox="0 0 576 512"><path d="M372 143.9L172.7 40.2c-8-4.1-17.3-4.8-25.7-1.7l-41.1 15c-10.3 3.7-13.8 16.4-7.1 25L200.3 206.4 100.1 242.8 40 206.2c-6.2-3.8-13.8-4.5-20.7-2.1L3 210.1c-9.4 3.4-13.4 14.5-8.3 23.1l53.6 91.8c15.6 26.7 48.1 38.4 77.1 27.8l12.9-4.7 0 0 398.4-145c29.1-10.6 44-42.7 33.5-71.8s-42.7-44-71.8-33.5L372 143.9zM32.2 448c-17.7 0-32 14.3-32 32s14.3 32 32 32l512 0c17.7 0 32-14.3 32-32s-14.3-32-32-32l-512 0z"/></symbol>
  <symbol id="road" viewBox="0 0 512 512"><path d="M223.9 32l-76.2 0c-29.4 0-55.1 20.1-62.1 48.6L1.4 420.5C-6.1 450.7 16.8 480 48 480l175.9 0 0-64c0-17.7 14.3-32 32-32s32 14.3 32 32l0 64 176.1 0c31.2 0 54.1-29.3 46.6-59.5L426.5 80.6C419.4 52.1 393.8 32 364.3 32l-76.4 0 0 64c0 17.7-14.3 32-32 32s-32-14.3-32-32l0-64zm64 192l0 64c0 17.7-14.3 32-32 32s-32-14.3-32-32l0-64c0-17.7 14.3-32 32-32s32 14.3 32 32z"/></symbol>
  <symbol id="route" viewBox="0 0 512 512"><path d="M512 96c0 50.2-59.1 125.1-84.6 155-3.8 4.4-9.4 6.1-14.5 5L320 256c-17.7 0-32 14.3-32 32s14.3 32 32 32l96 0c53 0 96 43 96 96s-43 96-96 96l-276.4 0c8.7-9.9 19.3-22.6 30-36.8 6.3-8.4 12.8-17.6 19-27.2L416 448c17.7 0 32-14.3 32-32s-14.3-32-32-32l-96 0c-53 0-96-43-96-96s43-96 96-96l39.8 0c-21-31.5-39.8-67.7-39.8-96 0-53 43-96 96-96s96 43 96 96zM117.1 489.1c-3.8 4.3-7.2 8.1-10.1 11.3l-1.8 2-.2-.2c-6 4.6-14.6 4-20-1.8-25.2-27.4-85-97.9-85-148.4 0-53 43-96 96-96s96 43 96 96c0 30-21.1 67-43.5 97.9-10.7 14.7-21.7 28-30.8 38.5l-.6 .7zM128 352a32 32 0 1 0 -64 0 32 32 0 1 0 64 0zM416 128a32 32 0 1 0 0-64 32 32 0 1 0 0 64z"/></symbol>
  <symbol id="ruler-combined" viewBox="0 0 448 512"><path d="M1 441.7C5.5 463.5 24.8 480 48 480l352 0c26.5 0 48-21.5 48-48l0-96c0-26.5-21.5-48-48-48l-48 0 0 72c0 13.3-10.7 24-24 24s-24-10.7-24-24l0-72-64 0 0 72c0 13.3-10.7 24-24 24s-24-10.7-24-24l0-72-72 0c-13.3 0-24-10.7-24-24s10.7-24 24-24l72 0 0-64-72 0c-13.3 0-24-10.7-24-24s10.7-24 24-24l72 0 0-48c0-26.5-21.5-48-48-48L48 32C21.5 32 0 53.5 0 80L0 432c0 3.3 .3 6.6 1 9.7z"/></symbol>
  <symbol id="sailboat" viewBox="0 0 512 512"><path d="M240 35.9l0 348.1-224 0c-8.8 0-16 7.2-16 16 0 61.9 50.1 112 112 112l288 0c61.9 0 112-50.1 112-112 0-8.8-7.2-16-16-16l-208 0 0-48 161.7 0c12.9 0 20.5-14.4 13.2-25L269.2 26.9c-8.9-13-29.2-6.7-29.2 9zM192 320l0-184.2c0-16.1-21-22.1-29.6-8.5L47.3 311.5c-6.7 10.7 1 24.5 13.6 24.5L176 336c8.8 0 16-7.2 16-16z"/></symbol>
  <symbol id="scale-balanced" viewBox="0 0 640 512"><path d="M384 32l128 0c17.7 0 32 14.3 32 32s-14.3 32-32 32L398.4 96c-5.2 25.8-22.9 47.1-46.4 57.3l0 294.7 160 0c17.7 0 32 14.3 32 32s-14.3 32-32 32l-384 0c-17.7 0-32-14.3-32-32s14.3-32 32-32l160 0 0-294.7c-23.5-10.3-41.2-31.6-46.4-57.3L128 96c-17.7 0-32-14.3-32-32s14.3-32 32-32l128 0c14.6-19.4 37.8-32 64-32s49.4 12.6 64 32zm55.6 288L584.4 320 512 195.8 439.6 320zM512 416c-62.9 0-115.2-34-126-78.9-2.6-11 1-22.3 6.7-32.1l95.2-163.2c5-8.6 14.2-13.8 24.1-13.8s19.1 5.3 24.1 13.8l95.2 163.2c5.7 9.8 9.3 21.1 6.7 32.1-10.8 44.8-63.1 78.9-126 78.9zM126.8 195.8L54.4 320 199.3 320 126.8 195.8zM.9 337.1c-2.6-11 1-22.3 6.7-32.1l95.2-163.2c5-8.6 14.2-13.8 24.1-13.8s19.1 5.3 24.1 13.8l95.2 163.2c5.7 9.8 9.3 21.1 6.7 32.1-10.8 44.8-63.1 78.9-126 78.9S11.7 382 .9 337.1z"/></symbol>
  <symbol id="seedling" viewBox="0 0 512 512"><path d="M512 32C512 140.1 435.4 230.3 333.6 251.4 325.7 193.3 299.6 141 261.1 100.5 301.2 40 369.9 0 448 0l32 0c17.7 0 32 14.3 32 32zM0 96C0 78.3 14.3 64 32 64l32 0c123.7 0 224 100.3 224 224l0 192c0 17.7-14.3 32-32 32s-32-14.3-32-32l0-160C100.3 320 0 219.7 0 96z"/></symbol>
  <symbol id="shield-halved" viewBox="0 0 512 512"><path d="M256 0c4.6 0 9.2 1 13.4 2.9L457.8 82.8c22 9.3 38.4 31 38.3 57.2-.5 99.2-41.3 280.7-213.6 363.2-16.7 8-36.1 8-52.8 0-172.4-82.5-213.1-264-213.6-363.2-.1-26.2 16.3-47.9 38.3-57.2L242.7 2.9C246.9 1 251.4 0 256 0zm0 66.8l0 378.1c138-66.8 175.1-214.8 176-303.4l-176-74.6 0 0z"/></symbol>
  <symbol id="shield-heart" viewBox="0 0 512 512"><path d="M269.4 2.9C265.2 1 260.7 0 256 0s-9.2 1-13.4 2.9L54.3 82.8c-22 9.3-38.4 31-38.3 57.2 .5 99.2 41.3 280.7 213.6 363.2 16.7 8 36.1 8 52.8 0 172.4-82.5 213.2-264 213.6-363.2 .1-26.2-16.3-47.9-38.3-57.2L269.4 2.9zM249.6 183.5l6.4 8.5 6.4-8.5c11.1-14.8 28.5-23.5 46.9-23.5 32.4 0 58.7 26.3 58.7 58.7l0 5.3c0 49.1-65.8 98.1-96.5 118.3-9.5 6.2-21.5 6.2-30.9 0-30.7-20.2-96.5-69.3-96.5-118.3l0-5.3c0-32.4 26.3-58.7 58.7-58.7 18.5 0 35.9 8.7 46.9 23.5z"/></symbol>
  <symbol id="ship" viewBox="0 0 640 512"><path d="M272 0c-26.5 0-48 21.5-48 48l0 16-16 0c-44.2 0-80 35.8-80 80l0 108.8-21.6 8.6c-14.8 5.9-22.5 22.4-17.4 37.5 10.4 31.3 26.8 59.3 47.7 83.1 20.1-9.2 41.7-13.9 63.3-14 33.1-.2 66.3 10.2 94.4 31.4l1.6 1.2 0-215-104 41.6 0-83.2c0-8.8 7.2-16 16-16l224 0c8.8 0 16 7.2 16 16l0 83.2-104-41.6 0 215 1.6-1.2c27.5-20.7 59.9-31.2 92.4-31.4 22.3-.1 44.6 4.5 65.3 14 20.9-23.7 37.3-51.8 47.7-83.1 5-15.2-2.6-31.6-17.4-37.5L512 252.8 512 144c0-44.2-35.8-80-80-80l-16 0 0-16c0-26.5-21.5-48-48-48L272 0zM403.4 476.1c21.3-16.1 49.9-16.1 71.2 0 19 14.4 41.9 28.2 67.2 33.3 26.5 5.4 54.3 .8 80.7-19.1 10.6-8 12.7-23 4.7-33.6s-23-12.7-33.6-4.7c-14.9 11.2-28.6 13.1-42.3 10.3-14.9-3-30.9-11.9-47.8-24.6-38.4-29-90.5-29-129 0-24 18.1-40.7 26.3-54.5 26.3s-30.5-8.2-54.5-26.3c-38.4-29-90.5-29-129 0-21.6 16.3-41.3 25.8-58.9 25.7-9.6-.1-19.9-3-31.2-11.5-10.6-8-25.6-5.9-33.6 4.7S7 482.3 17.6 490.3c19.1 14.4 39.4 21 59.8 21.1 33.9 .2 64.3-17.4 88.1-35.3 21.3-16.1 49.9-16.1 71.2 0 24.2 18.3 52.3 35.9 83.4 35.9s59.1-17.7 83.4-35.9z"/></symbol>
  <symbol id="shoe-prints" viewBox="0 0 576 512"><path d="M296 192c-21.1-12.1-42.3-24.2-72-29.3l0-140.3C257.7 13 311.4 0 352 0 448 0 576 48 576 128s-119.6 96-176 96c-48 0-76-16-104-32zM128 32l48 0 0 128-48 0c-35.3 0-64-28.7-64-64s28.7-64 64-64zM232 320c28-16 56-32 104-32 56.4 0 176 16 176 96S384 512 288 512c-40.5 0-94.3-13-128-22.4l0-140.3c29.7-5.2 50.9-17.3 72-29.4zM64 480c-35.3 0-64-28.7-64-64s28.7-64 64-64l48 0 0 128-48 0z"/></symbol>
  <symbol id="signal" viewBox="0 0 512 512"><path d="M488 56c0-13.3-10.7-24-24-24s-24 10.7-24 24l0 400c0 13.3 10.7 24 24 24s24-10.7 24-24l0-400zM360 128c-13.3 0-24 10.7-24 24l0 304c0 13.3 10.7 24 24 24s24-10.7 24-24l0-304c0-13.3-10.7-24-24-24zM280 248c0-13.3-10.7-24-24-24s-24 10.7-24 24l0 208c0 13.3 10.7 24 24 24s24-10.7 24-24l0-208zM152 320c-13.3 0-24 10.7-24 24l0 112c0 13.3 10.7 24 24 24s24-10.7 24-24l0-112c0-13.3-10.7-24-24-24zM48 384c-13.3 0-24 10.7-24 24l0 48c0 13.3 10.7 24 24 24s24-10.7 24-24l0-48c0-13.3-10.7-24-24-24z"/></symbol>
  <symbol id="sim-card" viewBox="0 0 384 512"><path d="M0 64C0 28.7 28.7 0 64 0L258.7 0c17 0 33.3 6.7 45.3 18.7L365.3 80c12 12 18.7 28.3 18.7 45.3L384 448c0 35.3-28.7 64-64 64L64 512c-35.3 0-64-28.7-64-64L0 64zM96 256c-17.7 0-32 14.3-32 32l0 40 128 0 0-72-96 0zM64 416c0 17.7 14.3 32 32 32l48 0 0-72-80 0 0 40zm256 0l0-40-128 0 0 72 96 0c17.7 0 32-14.3 32-32zm0-128c0-17.7-14.3-32-32-32l-48 0 0 72 80 0 0-40z"/></symbol>
  <symbol id="star" viewBox="0 0 576 512"><path d="M309.5-18.9c-4.1-8-12.4-13.1-21.4-13.1s-17.3 5.1-21.4 13.1L193.1 125.3 33.2 150.7c-8.9 1.4-16.3 7.7-19.1 16.3s-.5 18 5.8 24.4l114.4 114.5-25.2 159.9c-1.4 8.9 2.3 17.9 9.6 23.2s16.9 6.1 25 2L288.1 417.6 432.4 491c8 4.1 17.7 3.3 25-2s11-14.2 9.6-23.2L441.7 305.9 556.1 191.4c6.4-6.4 8.6-15.8 5.8-24.4s-10.1-14.9-19.1-16.3L383 125.3 309.5-18.9z"/></symbol>
  <symbol id="store" viewBox="0 0 512 512"><path d="M30.7 72.3C37.6 48.4 59.5 32 84.4 32l344 0c24.9 0 46.8 16.4 53.8 40.3l23.4 80.2c12.8 43.7-20.1 87.5-65.6 87.5-26.3 0-49.4-14.9-60.8-37.1-11.6 21.9-34.6 37.1-61.4 37.1-26.6 0-49.7-15-61.3-37-11.6 22-34.7 37-61.3 37-26.8 0-49.8-15.1-61.4-37.1-11.4 22.1-34.5 37.1-60.8 37.1-45.6 0-78.4-43.7-65.6-87.5L30.7 72.3zM96.4 352l320 0 0-66.4c7.6 1.6 15.5 2.4 23.5 2.4 14.3 0 28-2.6 40.5-7.2l0 151.2c0 26.5-21.5 48-48 48l-352 0c-26.5 0-48-21.5-48-48l0-151.2c12.5 4.6 26.1 7.2 40.5 7.2 8.1 0 15.9-.8 23.5-2.4l0 66.4z"/></symbol>
  <symbol id="suitcase" viewBox="0 0 512 512"><path d="M200 48l112 0c4.4 0 8 3.6 8 8l0 40-128 0 0-40c0-4.4 3.6-8 8-8zm-56 8l0 424 224 0 0-424c0-30.9-25.1-56-56-56L200 0c-30.9 0-56 25.1-56 56zM416 96l0 384 32 0c35.3 0 64-28.7 64-64l0-256c0-35.3-28.7-64-64-64l-32 0zM96 480l0-384-32 0C28.7 96 0 124.7 0 160L0 416c0 35.3 28.7 64 64 64l32 0z"/></symbol>
  <symbol id="sun" viewBox="0 0 576 512"><path d="M288-32c8.4 0 16.3 4.4 20.6 11.7L364.1 72.3 468.9 46c8.2-2 16.9 .4 22.8 6.3S500 67 498 75.1l-26.3 104.7 92.7 55.5c7.2 4.3 11.7 12.2 11.7 20.6s-4.4 16.3-11.7 20.6L471.7 332.1 498 436.8c2 8.2-.4 16.9-6.3 22.8S477 468 468.9 466l-104.7-26.3-55.5 92.7c-4.3 7.2-12.2 11.7-20.6 11.7s-16.3-4.4-20.6-11.7L211.9 439.7 107.2 466c-8.2 2-16.8-.4-22.8-6.3S76 445 78 436.8l26.2-104.7-92.6-55.5C4.4 272.2 0 264.4 0 256s4.4-16.3 11.7-20.6L104.3 179.9 78 75.1c-2-8.2 .3-16.8 6.3-22.8S99 44 107.2 46l104.7 26.2 55.5-92.6 1.8-2.6c4.5-5.7 11.4-9.1 18.8-9.1zm0 144a144 144 0 1 0 0 288 144 144 0 1 0 0-288zm0 240a96 96 0 1 1 0-192 96 96 0 1 1 0 192z"/></symbol>
  <symbol id="temperature-half" viewBox="0 0 320 512"><path d="M160 0C107 0 64 43 64 96l0 164.7C34.5 287 16 325.4 16 368 16 447.5 80.5 512 160 512s144-64.5 144-144c0-42.6-18.5-81-48-107.3L256 96c0-53-43-96-96-96zm64 368c0 35.3-28.7 64-64 64s-64-28.7-64-64c0-26.9 16.5-49.9 40-59.3l0-92.7c0-13.3 10.7-24 24-24s24 10.7 24 24l0 92.7c23.5 9.5 40 32.5 40 59.3z"/></symbol>
  <symbol id="triangle-exclamation" viewBox="0 0 512 512"><path d="M256 0c14.7 0 28.2 8.1 35.2 21l216 400c6.7 12.4 6.4 27.4-.8 39.5S486.1 480 472 480L40 480c-14.1 0-27.2-7.4-34.4-19.5s-7.5-27.1-.8-39.5l216-400c7-12.9 20.5-21 35.2-21zm0 352a32 32 0 1 0 0 64 32 32 0 1 0 0-64zm0-192c-18.2 0-32.7 15.5-31.4 33.7l7.4 104c.9 12.5 11.4 22.3 23.9 22.3 12.6 0 23-9.7 23.9-22.3l7.4-104c1.3-18.2-13.1-33.7-31.4-33.7z"/></symbol>
  <symbol id="umbrella-beach" viewBox="0 0 512 512"><path d="M497.5 341.1c-5.9 16.7-25.3 23-41.1 15.1l-178.2-89.1-1.6 3.2-88.8 177.7 292.2 0c17.7 0 32 14.3 32 32s-14.3 32-32 32L32 512c-17.7 0-32-14.3-32-32s14.3-32 32-32l84.2 0 103.2-206.3 1.6-3.2-165.4-82.7c-15.8-7.9-22.4-27.3-12.5-42 45.9-68.6 124.1-113.8 212.9-113.8 141.4 0 256 114.6 256 256 0 29.8-5.1 58.5-14.5 85.1z"/></symbol>
  <symbol id="user-tie" viewBox="0 0 448 512"><path d="M224 248a120 120 0 1 1 0-240 120 120 0 1 1 0 240zm-30.5 56l61 0c9.7 0 17.5 7.8 17.5 17.5 0 4.2-1.5 8.2-4.2 11.4l-27.4 32 31 115.1 .6 0 34.6-138.5c2.2-8.7 11.1-14 19.5-10.8 61.9 23.6 105.9 83.6 105.9 153.8 0 15.1-12.3 27.4-27.4 27.4L43.4 512c-15.1 0-27.4-12.3-27.4-27.4 0-70.2 44-130.2 105.9-153.8 8.4-3.2 17.3 2.1 19.5 10.8l34.6 138.5 .6 0 31-115.1-27.4-32c-2.7-3.2-4.2-7.2-4.2-11.4 0-9.7 7.8-17.5 17.5-17.5z"/></symbol>
  <symbol id="utensils" viewBox="0 0 512 512"><path d="M63.9 14.4C63.1 6.2 56.2 0 48 0s-15.1 6.2-16 14.3L17.9 149.7c-1.3 6-1.9 12.1-1.9 18.2 0 45.9 35.1 83.6 80 87.7L96 480c0 17.7 14.3 32 32 32s32-14.3 32-32l0-224.4c44.9-4.1 80-41.8 80-87.7 0-6.1-.6-12.2-1.9-18.2L223.9 14.3C223.1 6.2 216.2 0 208 0s-15.1 6.2-15.9 14.4L178.5 149.9c-.6 5.7-5.4 10.1-11.1 10.1-5.8 0-10.6-4.4-11.2-10.2L143.9 14.6C143.2 6.3 136.3 0 128 0s-15.2 6.3-15.9 14.6L99.8 149.8c-.5 5.8-5.4 10.2-11.2 10.2-5.8 0-10.6-4.4-11.1-10.1L63.9 14.4zM448 0C432 0 320 32 320 176l0 112c0 35.3 28.7 64 64 64l32 0 0 128c0 17.7 14.3 32 32 32s32-14.3 32-32l0-448c0-17.7-14.3-32-32-32z"/></symbol>
  <symbol id="volcano" viewBox="0 0 512 512"><path d="M160 144c-35.3 0-64-28.7-64-64s28.7-64 64-64c15.7 0 30 5.6 41.2 15 11.2-18.6 31.6-31 54.8-31s43.6 12.4 54.8 31c11.1-9.4 25.5-15 41.2-15 35.3 0 64 28.7 64 64s-28.7 64-64 64c-14.7 0-28.3-5-39.1-13.3l-32 48C275.3 187 266 192 256 192s-19.3-5-24.9-13.3l-32-48C188.3 139 174.7 144 160 144zM144 352l48.4-24.2c10.2-5.1 21.6-7.8 33-7.8 19.6 0 38.4 7.8 52.2 21.6l32.5 32.5c6.3 6.3 14.9 9.9 23.8 9.9 11.3 0 21.8-5.6 28-15l9.7-14.6-59-66.3c-9.1-10.2-22.2-16.1-35.9-16.1l-41.8 0c-13.7 0-26.8 5.9-35.9 16.1l-59.9 67.4 4.7-3.5zm19.4-95.8c18.2-20.5 44.3-32.2 71.8-32.2l41.8 0c27.4 0 53.5 11.7 71.8 32.2l150.2 169c8.5 9.5 13.2 21.9 13.2 34.7 0 28.8-23.4 52.2-52.2 52.2L52.2 512C23.4 512 0 488.6 0 459.8 0 447.1 4.7 434.7 13.2 425.2l150.2-169z"/></symbol>
  <symbol id="water" viewBox="0 0 512 512"><path d="M410.6 124.1c20.7 15.6 46 30.7 74.2 34.5 13.1 1.8 25.2-7.5 27-20.6s-7.5-25.2-20.6-27c-15.9-2.1-33.2-11.3-51.7-25.2-38.4-29-90.5-29-129 0-24 18.1-40.7 26.3-54.5 26.3s-30.5-8.2-54.5-26.3c-38.4-29-90.5-29-129 0-18.5 13.9-35.8 23.1-51.7 25.2-13.1 1.8-22.4 13.8-20.6 27s13.8 22.4 27 20.6c28.2-3.8 53.6-18.9 74.2-34.5 21.3-16.1 49.9-16.1 71.2 0 24.2 18.3 52.3 35.9 83.4 35.9s59.1-17.7 83.4-35.9c21.3-16.1 49.9-16.1 71.2 0zm0 144c20.7 15.6 46 30.7 74.2 34.5 13.1 1.8 25.2-7.5 27-20.6s-7.5-25.2-20.6-27c-15.9-2.1-33.2-11.3-51.7-25.2-38.4-29-90.5-29-129 0-24 18.1-40.7 26.3-54.5 26.3s-30.5-8.2-54.5-26.3c-38.4-29-90.5-29-129 0-18.5 13.9-35.8 23.1-51.7 25.2-13.1 1.7-22.4 13.8-20.6 27s13.8 22.4 27 20.6c28.2-3.8 53.6-18.9 74.2-34.5 21.3-16.1 49.9-16.1 71.2 0 24.2 18.3 52.3 35.9 83.4 35.9s59.1-17.7 83.4-35.9c21.3-16.1 49.9-16.1 71.2 0zm-71.2 144c21.3-16.1 49.9-16.1 71.2 0 20.7 15.6 46 30.7 74.2 34.5 13.1 1.8 25.2-7.5 27-20.6s-7.5-25.2-20.6-27c-15.9-2.1-33.2-11.3-51.7-25.2-38.4-29-90.5-29-129 0-24 18.1-40.7 26.3-54.5 26.3s-30.5-8.2-54.5-26.3c-38.4-29-90.5-29-129 0-18.5 13.9-35.8 23.1-51.7 25.2-13.1 1.8-22.4 13.8-20.6 27s13.8 22.4 27 20.6c28.2-3.8 53.6-18.9 74.2-34.5 21.3-16.1 49.9-16.1 71.2 0 24.2 18.3 52.3 35.9 83.4 35.9s59.1-17.7 83.4-35.9z"/></symbol>
  <symbol id="xmark" viewBox="0 0 384 512"><path d="M55.1 73.4c-12.5-12.5-32.8-12.5-45.3 0s-12.5 32.8 0 45.3L147.2 256 9.9 393.4c-12.5 12.5-12.5 32.8 0 45.3s32.8 12.5 45.3 0L192.5 301.3 329.9 438.6c12.5 12.5 32.8 12.5 45.3 0s12.5-32.8 0-45.3L237.8 256 375.1 118.6c12.5-12.5 12.5-32.8 0-45.3s-32.8-12.5-45.3 0L192.5 210.7 55.1 73.4z"/></symbol>
</svg>
